<svg width="1440" height="1024" viewBox="0 0 1440 1024" fill="none" xmlns="http://www.w3.org/2000/svg">
<g clip-path="url(#clip0_1_2)">
<rect width="1440" height="1024" fill="#FFF7EB"/>
<path d="M1619.81 1063.33C1594.56 1125.23 1563.71 1173.25 1527.28 1207.41C1490.85 1241.57 1458.86 1228.69 1431.32 1168.77C1403.78 1108.84 1384.39 1044.62 1373.15 976.091C1361.92 907.564 1371.57 849.724 1402.1 802.571C1432.64 755.418 1467.51 740.665 1506.72 758.313C1545.93 775.96 1580.9 815.733 1611.62 877.633C1642.34 939.532 1645.07 1001.43 1619.81 1063.33Z" fill="#F2DDBF"/>
<path d="M-5.36203 1025.55L-0.408131 988.611C-0.408131 988.611 -0.704219 982.581 0.230291 936.615C1.1648 890.648 -68.525 810.914 -24.9936 791.794C18.5378 772.674 5.92154 893.471 37.922 928.369C69.9224 963.267 107.902 986.79 151.862 998.938C195.821 1011.09 200.922 1025.84 203.588 1071.62C148.413 1013.46 119.129 1027.08 119.129 1027.08L53.0108 1036.27L6.6371 1025.7L-5.36203 1025.55Z" fill="#F2DDBF"/>
<path d="M108.791 -279.704C159.97 -286.764 205.171 -278.203 244.396 -254.02C283.62 -229.838 323.075 -206.905 362.759 -185.222C402.443 -163.539 429.594 -132.795 444.212 -92.9896C458.83 -53.1842 467.246 -11.2418 469.459 32.8378C471.672 76.9174 456.089 116.736 422.709 152.294C389.33 187.851 346.635 207.608 294.625 211.564C242.616 215.52 199.814 222.236 166.221 231.712C132.627 241.189 90.4594 260.805 39.7167 290.559C-11.0259 320.314 -55.9245 322.364 -94.9789 296.711C-134.033 271.057 -166.426 240.767 -192.157 205.84C-217.888 170.914 -214.369 132.427 -181.599 90.379C-148.829 48.3314 -136.729 9.20854 -145.299 -26.9896C-153.869 -63.1878 -140.09 -91.8301 -103.962 -112.916C-67.834 -134.003 -36.1375 -165.307 -8.87274 -206.83C18.392 -248.353 57.6135 -272.645 108.791 -279.704Z" fill="#F2DDBF"/>
<path d="M1127.89 756.206C1016.18 767.329 961.131 693.249 847.686 662.071C734.242 630.893 615.583 508.899 637.068 379.007C658.553 249.114 885.01 337.484 998.718 315.099C1112.43 292.714 1215.59 187.586 1322.53 232.36C1429.46 277.135 1426.14 337.191 1409.17 464.75C1392.2 592.309 1239.6 745.083 1127.89 756.206Z" fill="#F2DDBF"/>
</g>
<defs>
<clipPath id="clip0_1_2">
<rect width="1440" height="1024" fill="white"/>
</clipPath>
</defs>
</svg>
